<svg viewBox="0 0 334 75" xmlns="http://www.w3.org/2000/svg">
<path d="M25.95 19.9V26.75H11.65V34.15H22.35V40.8H11.65V55H3.1V19.9H25.95ZM33.2638 30.36C32.0638 30.36 31.0771 30.0133 30.3038 29.32C29.5571 28.6 29.1838 27.72 29.1838 26.68C29.1838 25.6133 29.5571 24.7333 30.3038 24.04C31.0771 23.32 32.0638 22.96 33.2638 22.96C34.4371 22.96 35.3971 23.32 36.1438 24.04C36.9171 24.7333 37.3038 25.6133 37.3038 26.68C37.3038 27.72 36.9171 28.6 36.1438 29.32C35.3971 30.0133 34.4371 30.36 33.2638 30.36ZM36.6638 32.68V55H29.8238V32.68H36.6638ZM55.2206 32.44C57.834 32.44 59.914 33.2933 61.4606 35C63.034 36.68 63.8206 39 63.8206 41.96V55H57.0206V42.88C57.0206 41.3867 56.634 40.2267 55.8606 39.4C55.0873 38.5733 54.0473 38.16 52.7406 38.16C51.434 38.16 50.394 38.5733 49.6206 39.4C48.8473 40.2267 48.4606 41.3867 48.4606 42.88V55H41.6206V32.68H48.4606V35.64C49.154 34.6533 50.0873 33.88 51.2606 33.32C52.434 32.7333 53.754 32.44 55.2206 32.44ZM67.2138 43.8C67.2138 41.5067 67.6404 39.4933 68.4938 37.76C69.3738 36.0267 70.5604 34.6933 72.0538 33.76C73.5471 32.8267 75.2138 32.36 77.0538 32.36C78.6271 32.36 80.0004 32.68 81.1738 33.32C82.3738 33.96 83.2938 34.8 83.9338 35.84V32.68H90.7738V55H83.9338V51.84C83.2671 52.88 82.3338 53.72 81.1338 54.36C79.9604 55 78.5871 55.32 77.0138 55.32C75.2004 55.32 73.5471 54.8533 72.0538 53.92C70.5604 52.96 69.3738 51.6133 68.4938 49.88C67.6404 48.12 67.2138 46.0933 67.2138 43.8ZM83.9338 43.84C83.9338 42.1333 83.4538 40.7867 82.4938 39.8C81.5604 38.8133 80.4138 38.32 79.0538 38.32C77.6938 38.32 76.5338 38.8133 75.5738 39.8C74.6404 40.76 74.1738 42.0933 74.1738 43.8C74.1738 45.5067 74.6404 46.8667 75.5738 47.88C76.5338 48.8667 77.6938 49.36 79.0538 49.36C80.4138 49.36 81.5604 48.8667 82.4938 47.88C83.4538 46.8933 83.9338 45.5467 83.9338 43.84ZM109.322 32.44C111.936 32.44 114.016 33.2933 115.562 35C117.136 36.68 117.922 39 117.922 41.96V55H111.122V42.88C111.122 41.3867 110.736 40.2267 109.962 39.4C109.189 38.5733 108.149 38.16 106.842 38.16C105.536 38.16 104.496 38.5733 103.722 39.4C102.949 40.2267 102.562 41.3867 102.562 42.88V55H95.7222V32.68H102.562V35.64C103.256 34.6533 104.189 33.88 105.362 33.32C106.536 32.7333 107.856 32.44 109.322 32.44ZM121.315 43.84C121.315 41.52 121.782 39.4933 122.715 37.76C123.675 36.0267 124.995 34.6933 126.675 33.76C128.382 32.8267 130.329 32.36 132.515 32.36C135.315 32.36 137.649 33.0933 139.515 34.56C141.409 36.0267 142.649 38.0933 143.235 40.76H135.955C135.342 39.0533 134.155 38.2 132.395 38.2C131.142 38.2 130.142 38.6933 129.395 39.68C128.649 40.64 128.275 42.0267 128.275 43.84C128.275 45.6533 128.649 47.0533 129.395 48.04C130.142 49 131.142 49.48 132.395 49.48C134.155 49.48 135.342 48.6267 135.955 46.92H143.235C142.649 49.5333 141.409 51.5867 139.515 53.08C137.622 54.5733 135.289 55.32 132.515 55.32C130.329 55.32 128.382 54.8533 126.675 53.92C124.995 52.9867 123.675 51.6533 122.715 49.92C121.782 48.1867 121.315 46.16 121.315 43.84ZM167.934 43.48C167.934 44.12 167.894 44.7867 167.814 45.48H152.334C152.441 46.8667 152.881 47.9333 153.654 48.68C154.454 49.4 155.427 49.76 156.574 49.76C158.281 49.76 159.467 49.04 160.134 47.6H167.414C167.041 49.0667 166.361 50.3867 165.374 51.56C164.414 52.7333 163.201 53.6533 161.734 54.32C160.267 54.9867 158.627 55.32 156.814 55.32C154.627 55.32 152.681 54.8533 150.974 53.92C149.267 52.9867 147.934 51.6533 146.974 49.92C146.014 48.1867 145.534 46.16 145.534 43.84C145.534 41.52 146.001 39.4933 146.934 37.76C147.894 36.0267 149.227 34.6933 150.934 33.76C152.641 32.8267 154.601 32.36 156.814 32.36C158.974 32.36 160.894 32.8133 162.574 33.72C164.254 34.6267 165.561 35.92 166.494 37.6C167.454 39.28 167.934 41.24 167.934 43.48ZM160.934 41.68C160.934 40.5067 160.534 39.5733 159.734 38.88C158.934 38.1867 157.934 37.84 156.734 37.84C155.587 37.84 154.614 38.1733 153.814 38.84C153.041 39.5067 152.561 40.4533 152.374 41.68H160.934ZM197.413 19.9V26.75H188.113V55H179.563V26.75H170.263V19.9H197.413ZM207.924 36.4C208.724 35.1733 209.724 34.2133 210.924 33.52C212.124 32.8 213.457 32.44 214.924 32.44V39.68H213.044C211.337 39.68 210.057 40.0533 209.204 40.8C208.35 41.52 207.924 42.8 207.924 44.64V55H201.084V32.68H207.924V36.4ZM216.833 43.8C216.833 41.5067 217.26 39.4933 218.113 37.76C218.993 36.0267 220.18 34.6933 221.673 33.76C223.166 32.8267 224.833 32.36 226.673 32.36C228.246 32.36 229.62 32.68 230.793 33.32C231.993 33.96 232.913 34.8 233.553 35.84V32.68H240.393V55H233.553V51.84C232.886 52.88 231.953 53.72 230.753 54.36C229.58 55 228.206 55.32 226.633 55.32C224.82 55.32 223.166 54.8533 221.673 53.92C220.18 52.96 218.993 51.6133 218.113 49.88C217.26 48.12 216.833 46.0933 216.833 43.8ZM233.553 43.84C233.553 42.1333 233.073 40.7867 232.113 39.8C231.18 38.8133 230.033 38.32 228.673 38.32C227.313 38.32 226.153 38.8133 225.193 39.8C224.26 40.76 223.793 42.0933 223.793 43.8C223.793 45.5067 224.26 46.8667 225.193 47.88C226.153 48.8667 227.313 49.36 228.673 49.36C230.033 49.36 231.18 48.8667 232.113 47.88C233.073 46.8933 233.553 45.5467 233.553 43.84ZM243.981 43.84C243.981 41.52 244.448 39.4933 245.381 37.76C246.341 36.0267 247.661 34.6933 249.341 33.76C251.048 32.8267 252.995 32.36 255.181 32.36C257.981 32.36 260.315 33.0933 262.181 34.56C264.075 36.0267 265.315 38.0933 265.901 40.76H258.621C258.008 39.0533 256.821 38.2 255.061 38.2C253.808 38.2 252.808 38.6933 252.061 39.68C251.315 40.64 250.941 42.0267 250.941 43.84C250.941 45.6533 251.315 47.0533 252.061 48.04C252.808 49 253.808 49.48 255.061 49.48C256.821 49.48 258.008 48.6267 258.621 46.92H265.901C265.315 49.5333 264.075 51.5867 262.181 53.08C260.288 54.5733 257.955 55.32 255.181 55.32C252.995 55.32 251.048 54.8533 249.341 53.92C247.661 52.9867 246.341 51.6533 245.381 49.92C244.448 48.1867 243.981 46.16 243.981 43.84ZM283.2 55L276.4 45.64V55H269.56V25.4H276.4V41.76L283.16 32.68H291.6L282.32 43.88L291.68 55H283.2ZM315.327 43.48C315.327 44.12 315.287 44.7867 315.207 45.48H299.727C299.833 46.8667 300.273 47.9333 301.047 48.68C301.847 49.4 302.82 49.76 303.967 49.76C305.673 49.76 306.86 49.04 307.527 47.6H314.807C314.433 49.0667 313.753 50.3867 312.767 51.56C311.807 52.7333 310.593 53.6533 309.127 54.32C307.66 54.9867 306.02 55.32 304.207 55.32C302.02 55.32 300.073 54.8533 298.367 53.92C296.66 52.9867 295.327 51.6533 294.367 49.92C293.407 48.1867 292.927 46.16 292.927 43.84C292.927 41.52 293.393 39.4933 294.327 37.76C295.287 36.0267 296.62 34.6933 298.327 33.76C300.033 32.8267 301.993 32.36 304.207 32.36C306.367 32.36 308.287 32.8133 309.967 33.72C311.647 34.6267 312.953 35.92 313.887 37.6C314.847 39.28 315.327 41.24 315.327 43.48ZM308.327 41.68C308.327 40.5067 307.927 39.5733 307.127 38.88C306.327 38.1867 305.327 37.84 304.127 37.84C302.98 37.84 302.007 38.1733 301.207 38.84C300.433 39.5067 299.953 40.4533 299.767 41.68H308.327ZM325.775 36.4C326.575 35.1733 327.575 34.2133 328.775 33.52C329.975 32.8 331.308 32.44 332.775 32.44V39.68H330.895C329.188 39.68 327.908 40.0533 327.055 40.8C326.202 41.52 325.775 42.8 325.775 44.64V55H318.935V32.68H325.775V36.4Z" fill="black"/>
<rect y="60" width="333" height="6" fill="#2168DD"/>
</svg>
